HIERARCHY
ROOT Hips
{
 OFFSET 0.000000 0.000000 0.000000
 CHANNELS 6 Xposition Yposition Zposition Yrotation Xrotation Zrotation
 JOINT Chest
 {
  OFFSET 0.000000 14.374500 -0.011500
  CHANNELS 3 Yrotation Xrotation Zrotation
  JOINT Chest2
  {
   OFFSET 0.000000 9.203400 0.023400
   CHANNELS 3 Yrotation Xrotation Zrotation
   JOINT Chest3
   {
    OFFSET 0.000000 9.162700 0.000000
    CHANNELS 3 Yrotation Xrotation Zrotation
    JOINT Chest4
    {
     OFFSET 0.000000 9.153300 0.000000
     CHANNELS 3 Yrotation Xrotation Zrotation
     JOINT Neck
     {
      OFFSET 0.000000 13.353600 0.000000
      CHANNELS 3 Yrotation Xrotation Zrotation
      JOINT Head
      {
       OFFSET 0.000000 8.573800 0.049400
       CHANNELS 3 Yrotation Xrotation Zrotation
       End Site
       {
        OFFSET 0.000000 16.219200 0.026100
       }
      }
     }
     JOINT RightCollar
     {
      OFFSET -2.497100 8.876100 0.000000
      CHANNELS 3 Yrotation Xrotation Zrotation
      JOINT RightShoulder
      {
       OFFSET -12.289200 0.000000 0.000000
       CHANNELS 3 Yrotation Xrotation Zrotation
       JOINT RightElbow
       {
        OFFSET 0.000000 -28.194900 0.000000
        CHANNELS 3 Yrotation Xrotation Zrotation
        JOINT RightWrist
        {
         OFFSET 0.000000 -23.009700 0.007900
         CHANNELS 3 Yrotation Xrotation Zrotation
         End Site
         {
          OFFSET 0.000000 -17.151500 0.000000
         }
        }
       }
      }
     }
     JOINT LeftCollar
     {
      OFFSET 2.497100 8.876100 0.000000
      CHANNELS 3 Yrotation Xrotation Zrotation
      JOINT LeftShoulder
      {
       OFFSET 12.289200 0.000000 0.000000
       CHANNELS 3 Yrotation Xrotation Zrotation
       JOINT LeftElbow
       {
        OFFSET 0.000000 -28.194900 0.000000
        CHANNELS 3 Yrotation Xrotation Zrotation
        JOINT LeftWrist
        {
         OFFSET 0.000000 -23.009700 0.007900
         CHANNELS 3 Yrotation Xrotation Zrotation
         End Site
         {
          OFFSET 0.000000 -17.151500 0.000000
         }
        }
       }
      }
     }
    }
   }
  }
 }
 JOINT RightHip
 {
  OFFSET -11.777600 0.056700 0.005700
  CHANNELS 3 Yrotation Xrotation Zrotation
  JOINT RightKnee
  {
   OFFSET 0.000000 -39.966000 -0.004200
   CHANNELS 3 Yrotation Xrotation Zrotation
   JOINT RightAnkle
   {
    OFFSET 0.000000 -41.981900 0.027400
    CHANNELS 3 Yrotation Xrotation Zrotation
    JOINT RightToe
    {
     OFFSET 0.000000 -9.910600 16.950100
     CHANNELS 3 Yrotation Xrotation Zrotation
     End Site
     {
      OFFSET 0.000000 -1.461000 6.191600
     }
    }
   }
  }
 }
 JOINT LeftHip
 {
  OFFSET 11.777600 0.056700 0.005700
  CHANNELS 3 Yrotation Xrotation Zrotation
  JOINT LeftKnee
  {
   OFFSET 0.000000 -39.966000 -0.004200
   CHANNELS 3 Yrotation Xrotation Zrotation
   JOINT LeftAnkle
   {
    OFFSET 0.000000 -41.981900 0.027400
    CHANNELS 3 Yrotation Xrotation Zrotation
    JOINT LeftToe
    {
     OFFSET 0.000000 -9.910600 16.950100
     CHANNELS 3 Yrotation Xrotation Zrotation
     End Site
     {
      OFFSET 0.000000 -1.461000 6.191600
     }
    }
   }
  }
 }
}
MOTION
Frames: 12
Frame Time: 0.008333
0.000000 91.618700 0.000000 0.000000 -5.767877 0.000000 0.000000 11.653817 0.000000 0.000000 -5.885947 0.000000 0.000000 -0.000000 0.000000 0.000000 -0.000000 0.000000 0.000000 12.528835 0.000000 0.000000 0.711642 0.000000 0.000000 -0.000000 0.000000 0.000000 0.000000 -90.000000 0.000000 -2.309062 0.000000 0.000000 2.309062 0.000000 0.000000 -0.000000 0.000000 0.000000 -0.000000 90.000000 0.000000 -2.309062 0.000000 0.000000 2.309062 0.000000 0.000000 8.520406 0.000000 0.000000 1.905762 0.000000 -0.000000 -4.658285 0.000000 0.000000 -0.000000 0.000000 0.000000 8.520406 0.000000 0.000000 1.905762 0.000000 -0.000000 -4.658285 0.000000 0.000000 -0.000000 0.000000
-2.443559 152.706750 86.020184 175.045572 -44.013045 -2.969120 4.405897 27.889184 3.417674 0.606665 4.993565 0.499445 0.978456 7.866208 0.813386 3.224296 22.448621 2.798481 -0.031940 13.860157 -1.592056 0.325099 -11.167715 -1.645257 1.850323 -7.010822 -0.630613 9.403929 -16.952907 -6.449002 42.498836 -55.307900 -31.002532 24.381562 31.744762 -11.211683 -11.138625 -10.260316 1.109060 -5.379196 -16.275749 0.590476 -33.446852 -56.862303 15.253486 -19.640438 2.155192 24.878623 7.236587 -33.129277 0.523896 -85.320233 86.256676 -88.343544 3.723942 -27.402238 7.940761 0.080343 -0.240822 0.044839 -2.805791 -33.843193 -2.624366 147.082938 71.734283 158.862979 -3.833402 10.112478 -8.019268 0.229645 -9.428967 -1.309871
-3.870792 145.644178 87.971674 175.186505 -44.053534 -3.176108 4.345451 27.790506 3.532170 0.605750 4.982995 0.498190 0.976983 7.850655 0.811383 3.222947 22.431002 2.795131 -0.056097 14.020056 -1.588270 0.279458 -11.013127 -1.639517 1.854640 -7.015234 -0.602427 9.432421 -17.011900 -6.469097 42.234548 -55.089602 -30.713498 24.359780 31.690008 -11.223466 -11.141218 -10.245247 1.097562 -5.420341 -16.345284 0.606819 -33.317600 -56.622022 15.162366 -19.648047 2.135876 24.882921 7.050479 -33.127372 0.657388 -85.754700 86.253830 -88.787735 3.758113 -27.491007 7.954822 0.049229 -0.163797 0.028780 -2.977516 -33.782141 -2.473133 147.075868 71.773863 158.854296 -3.786200 10.159543 -7.975992 0.070292 0.088703 0.041085
-5.046488 139.828454 89.584146 175.310086 -44.114499 -3.350319 4.286534 27.711373 3.624837 0.604808 4.973526 0.497247 0.975599 7.836630 0.809915 3.221460 22.415095 2.792997 -0.056898 14.192536 -1.580938 0.218275 -10.860343 -1.641817 1.859784 -7.021351 -0.575071 9.454393 -17.070311 -6.482406 41.989835 -54.882658 -30.432122 24.342234 31.646658 -11.233430 -11.143670 -10.230182 1.083259 -5.460535 -16.419059 0.623318 -33.196200 -56.379305 15.078460 -19.655216 2.111779 24.882278 6.888593 -33.097981 0.771618 -86.117583 86.258442 -89.163073 3.769355 -27.564645 7.971417 0.025900 -0.093576 0.015138 -3.120611 -33.719836 -2.343291 147.119198 71.801392 158.894932 -3.760792 10.210326 -7.948204 0.036351 0.063943 0.021256
-5.903284 135.628404 90.755040 175.366360 -44.196226 -3.421982 4.247820 27.651580 3.658193 0.603572 4.964735 0.496514 0.973740 7.823639 0.808831 3.218448 22.400384 2.791538 -0.087601 14.352299 -1.590426 0.192959 -10.684415 -1.645390 1.866403 -7.025646 -0.549708 9.470278 -17.130786 -6.491875 41.765100 -54.655762 -30.177248 24.300503 31.602101 -11.244799 -11.146252 -10.213832 1.068087 -5.491958 -16.496671 0.635716 -33.086115 -56.135152 15.001071 -19.642902 2.081004 24.867907 6.769476 -33.050868 0.819921 -86.451044 86.279455 -89.534316 3.793612 -27.607864 7.976838 0.006334 -0.048153 0.003703 -3.173025 -33.638748 -2.296239 147.030969 71.834092 158.804678 -3.770066 10.286438 -7.925302 0.012220 0.030939 0.007145
-6.441431 132.977493 91.503088 175.402891 -44.299182 -3.479081 4.225822 27.610619 3.694990 0.602035 4.955708 0.495998 0.971380 7.810435 0.808050 3.214212 22.385387 2.790988 -0.151443 14.509827 -1.618187 0.206971 -10.497606 -1.647924 1.874107 -7.026168 -0.526681 9.482143 -17.192894 -6.499918 41.560292 -54.409029 -29.953034 24.256358 31.537196 -11.259166 -11.149857 -10.194905 1.052484 -5.517386 -16.578814 0.644180 -32.981051 -55.884433 14.925533 -19.630191 2.046009 24.850247 6.708223 -32.966699 0.867417 -86.544256 86.275466 -89.633766 3.799763 -27.639376 7.985729 0.003753 -0.014585 0.002194 -3.206546 -33.541682 -2.253389 147.016435 71.851474 158.791681 -3.774742 10.322156 -7.914478 0.001051 0.014745 0.000614
-6.739175 131.522166 91.923428 175.404163 -44.423152 -3.488799 4.218817 27.589488 3.708161 0.600663 4.946324 0.495781 0.969337 7.796736 0.807667 3.211058 22.369628 2.791955 -0.160061 14.688593 -1.625211 0.177245 -10.327342 -1.662816 1.881897 -7.025517 -0.505865 9.492239 -17.253737 -6.505426 41.345888 -54.205594 -29.691288 24.239678 31.509837 -11.274739 -11.155838 -10.174050 1.036520 -5.548694 -16.665512 0.652392 -32.868664 -55.626193 14.848475 -19.616693 2.011084 24.834001 6.688348 -32.854036 0.888830 -86.472111 86.272221 -89.565780 3.808626 -27.642707 7.986476 0.005380 -0.002178 0.003145 -3.199078 -33.423434 -2.244710 147.019427 71.859700 158.797090 -3.775328 10.323368 -7.921360 -0.002639 0.017721 -0.001543
-6.880300 130.830498 92.136403 175.393277 -44.549553 -3.486788 4.229983 27.641998 3.721111 0.593685 4.861620 0.496721 0.967810 7.782944 0.807508 3.209587 22.353630 2.793687 -0.168352 14.871871 -1.632503 0.156401 -10.166863 -1.679461 1.888582 -7.023204 -0.485764 9.503864 -17.315342 -6.507532 41.139342 -53.997125 -29.440326 24.221559 31.484875 -11.289130 -11.164087 -10.151194 1.020408 -5.589374 -16.755309 0.662134 -32.747639 -55.364426 14.772193 -19.602630 1.978681 24.818827 6.663382 -32.738038 0.907521 -86.258795 86.265661 -89.359415 3.826891 -27.634383 7.976393 0.006103 0.006212 0.003569 -3.180296 -33.306985 -2.241702 146.972007 71.867303 158.754481 -3.791475 10.338590 -7.921715 -0.004466 0.019236 -0.002612
-6.941010 130.547475 92.239214 175.387581 -44.669348 -3.472028 4.209293 27.572453 3.708332 0.596549 4.889839 0.495885 0.967144 7.769671 0.807264 3.210677 22.338073 2.795379 -0.188711 15.042067 -1.642098 0.156944 -10.002363 -1.695573 1.891309 -7.017818 -0.463118 9.519110 -17.380161 -6.506473 40.967829 -53.747010 -29.252526 24.182393 31.429149 -11.279358 -11.175518 -10.125814 1.005999 -5.637286 -16.846926 0.673901 -32.621113 -55.102605 14.694559 -19.542574 1.937238 24.788546 6.621645 -32.633101 0.905692 -86.272369 86.288695 -89.406507 3.845328 -27.638628 7.969656 0.001883 0.004152 0.001101 -3.147380 -33.224604 -2.249813 146.934044 71.876129 158.719673 -3.823604 10.395105 -7.912160 -0.001305 0.004146 -0.000763
-6.960115 130.451582 92.290731 175.364262 -44.801535 -3.457790 4.210231 27.507801 3.710810 0.599119 4.919549 0.495234 0.967104 7.757116 0.806826 3.213378 22.323208 2.796567 -0.203899 15.181363 -1.664906 0.161353 -9.815371 -1.697221 1.890647 -7.012050 -0.436384 9.536772 -17.444737 -6.503472 40.824552 -53.429897 -29.147582 24.124529 31.308841 -11.231004 -11.189307 -10.097463 0.993122 -5.688075 -16.938497 0.687553 -32.487394 -54.843649 14.608970 -19.486101 1.898603 24.762250 6.610208 -32.511344 0.923170 -86.072980 86.287200 -89.217118 3.847568 -27.645297 7.971743 0.001446 -0.000883 0.000845 -3.115039 -33.111310 -2.244937 146.950206 71.877434 158.736335 -3.832747 10.403838 -7.906152 -0.000294 0.007441 -0.000172
-6.965295 130.426426 92.322692 175.345961 -44.939368 -3.444587 4.213304 27.484250 3.714761 0.598930 4.911048 0.494819 0.966718 7.744596 0.806282 3.214959 22.308449 2.797163 -0.205269 15.328314 -1.681007 0.165408 -9.642337 -1.706284 1.890070 -7.006665 -0.407050 9.554748 -17.507122 -6.500098 40.673826 -53.143267 -29.009504 24.078330 31.219379 -11.183124 -11.203242 -10.065511 0.978708 -5.737820 -17.029488 0.704708 -32.271509 -54.616782 14.424831 -19.518528 1.894846 24.774822 6.595690 -32.385158 0.939498 -85.934960 86.281506 -89.092553 3.859667 -27.641114 7.970009 0.001074 -0.002380 0.000628 -3.085391 -32.992778 -2.241958 146.966896 71.878468 158.751266 -3.842920 10.413189 -7.898379 0.000933 0.010926 0.000546
-6.969044 130.422552 92.348932 175.330639 -45.075255 -3.421214 4.207659 27.457991 3.706131 0.598255 4.902061 0.494462 0.965687 7.731411 0.805769 3.214715 22.293038 2.797779 -0.197809 15.481589 -1.693461 0.176061 -9.480732 -1.721924 1.892515 -6.997175 -0.378685 9.571410 -17.571988 -6.493709 40.518197 -52.869053 -28.849654 24.040481 31.148921 -11.148202 -11.216021 -10.029359 0.962736 -5.781913 -17.122783 0.724355 -32.151288 -54.344094 14.355478 -19.536879 1.869322 24.767695 6.586942 -32.260044 0.938685 -85.793804 86.278045 -88.962636 3.870303 -27.636108 7.965157 0.003999 -0.002647 0.002338 -3.051006 -32.880098 -2.252081 146.882339 71.890237 158.656413 -3.874654 10.461183 -7.875809 -0.002610 0.002407 -0.001526
